<svg xmlns="http://www.w3.org/2000/svg" xmlns:xlink="http://www.w3.org/1999/xlink" viewBox="0 0 100 100"><g><defs><path d="M 12.5 25.84 C 12.5 18.473 18.473 12.5 25.84 12.5 L 74.16 12.5 C 81.527 12.5 87.5 18.473 87.5 25.84 L 87.5 74.16 C 87.5 81.527 81.527 87.5 74.16 87.5 L 25.84 87.5 C 18.473 87.5 12.5 81.527 12.5 74.16 Z" id="a1088z"/><clipPath id="a1089z"><use xlink:href="#a1088z"/></clipPath><filter id="a1090z" x="-18.7%" y="-22%" width="136.3%" height="142.9%" filterUnits="objectBoundingBox"><feOffset dx="0" dy="2.5" in="SourceAlpha" result="a1092z"/><feGaussianBlur stdDeviation="2.5" in="a1092z" result="a1093z"/><feColorMatrix color-interpolation-filters="sRGB" values="0 0 0 0 0 0 0 0 0 0 0 0 0 0 0 0 0 0 0.1 0" type="matrix" in="a1093z" result="a1094z"/></filter><filter id="a1095z" x="0%" y="-1.1%" width="98.9%" height="101.1%" filterUnits="objectBoundingBox"><feGaussianBlur stdDeviation="0" in="SourceAlpha" result="a1097z"/><feOffset dx="0" dy=".84" in="a1097z" result="a1098z"/><feComposite in="a1098z" in2="SourceAlpha" operator="arithmetic" k2="-1" k3="1" result="a1099z"/><feColorMatrix color-interpolation-filters="sRGB" values="0 0 0 0 1 0 0 0 0 1 0 0 0 0 1 0 0 0 0.05 0" type="matrix" in="a1099z" result="a1100z"/></filter><linearGradient id="idyVLPt8wMeg-562912625" gradientTransform="rotate(45, 0.5, 0.5)"><stop offset="0" stop-color="#2B2B2B" stop-opacity="1"/><stop offset="1" stop-color="#232323" stop-opacity="1"/></linearGradient></defs><g filter="url(#a1090z)"><use stroke-width="1.68" stroke="#000" fill="#000" fill-opacity="1" stroke-opacity="1" xlink:href="#a1088z" clip-path="url(#a1089z)"/></g><use xlink:href="#a1088z" fill="url(#idyVLPt8wMeg-562912625)" stroke-opacity="0"/><use fill="#000" fill-opacity="1" filter="url(#a1095z)" xlink:href="#a1088z"/><use xlink:href="#a1088z" clip-path="url(#a1089z)" fill="transparent" stroke-width="1.68" stroke="rgba(255, 255, 255, 0.01)"/></g><g><defs><path d="M 45.833 36.667 C 45.833 34.365 47.699 32.5 50 32.5 C 52.301 32.5 54.167 34.365 54.167 36.667 L 54.167 45.833 L 63.333 45.833 C 65.635 45.833 67.5 47.699 67.5 50 C 67.5 52.301 65.635 54.167 63.333 54.167 L 54.167 54.167 L 54.167 63.333 C 54.167 65.635 52.301 67.5 50 67.5 C 47.699 67.5 45.833 65.635 45.833 63.333 L 45.833 54.167 L 36.667 54.167 C 34.365 54.167 32.5 52.301 32.5 50 C 32.5 47.699 34.365 45.833 36.667 45.833 L 45.833 45.833 Z" id="a1101z"/><filter id="a1103z" x="0%" y="-2.4%" width="99.7%" height="104.5%" filterUnits="objectBoundingBox"><feGaussianBlur stdDeviation="0" in="SourceAlpha" result="a1105z"/><feOffset dx="0" dy=".84" in="a1105z" result="a1106z"/><feComposite in="a1106z" in2="SourceAlpha" operator="arithmetic" k2="-1" k3="1" result="a1107z"/><feColorMatrix color-interpolation-filters="sRGB" values="0 0 0 0 1 0 0 0 0 1 0 0 0 0 1 0 0 0 0.05 0" type="matrix" in="a1107z" result="a1108z"/></filter><linearGradient id="idaUOsk8DH3g-828872372" gradientTransform="rotate(45, 0.5, 0.5)"><stop offset="0" stop-color="#09F" stop-opacity="1"/><stop offset="1" stop-color="#07F" stop-opacity="1"/></linearGradient></defs><use xlink:href="#a1101z" fill="url(#idaUOsk8DH3g-828872372)" clip-path="url(#a1102z)"/><use fill="#000" fill-opacity="1" filter="url(#a1103z)" xlink:href="#a1101z"/></g></svg>