<svg xmlns="http://www.w3.org/2000/svg" xmlns:xlink="http://www.w3.org/1999/xlink" viewBox="0 0 100 100"><g><defs><path d="M 12.5 25.84 C 12.5 18.473 18.473 12.5 25.84 12.5 L 74.16 12.5 C 81.527 12.5 87.5 18.473 87.5 25.84 L 87.5 74.16 C 87.5 81.527 81.527 87.5 74.16 87.5 L 25.84 87.5 C 18.473 87.5 12.5 81.527 12.5 74.16 Z" id="a1000z"/><clipPath id="a1001z"><use xlink:href="#a1000z"/></clipPath><filter id="a1002z" x="-18.7%" y="-22%" width="136.3%" height="142.9%" filterUnits="objectBoundingBox"><feOffset dx="0" dy="2.5" in="SourceAlpha" result="a1004z"/><feGaussianBlur stdDeviation="2.5" in="a1004z" result="a1005z"/><feColorMatrix color-interpolation-filters="sRGB" values="0 0 0 0 0 0 0 0 0 0 0 0 0 0 0 0 0 0 0.1 0" type="matrix" in="a1005z" result="a1006z"/></filter><filter id="a1007z" x="0%" y="-1.1%" width="98.9%" height="101.1%" filterUnits="objectBoundingBox"><feGaussianBlur stdDeviation="0" in="SourceAlpha" result="a1009z"/><feOffset dx="0" dy=".84" in="a1009z" result="a1010z"/><feComposite in="a1010z" in2="SourceAlpha" operator="arithmetic" k2="-1" k3="1" result="a1011z"/><feColorMatrix color-interpolation-filters="sRGB" values="0 0 0 0 1 0 0 0 0 1 0 0 0 0 1 0 0 0 0.05 0" type="matrix" in="a1011z" result="a1012z"/></filter><linearGradient id="idtmr6N8IN8g-562912625" gradientTransform="rotate(45, 0.5, 0.5)"><stop offset="0" stop-color="#2B2B2B" stop-opacity="1"/><stop offset="1" stop-color="#232323" stop-opacity="1"/></linearGradient></defs><g filter="url(#a1002z)"><use stroke-width="1.68" stroke="#000" fill="#000" fill-opacity="1" stroke-opacity="1" xlink:href="#a1000z" clip-path="url(#a1001z)"/></g><use xlink:href="#a1000z" fill="url(#idtmr6N8IN8g-562912625)" stroke-opacity="0"/><use fill="#000" fill-opacity="1" filter="url(#a1007z)" xlink:href="#a1000z"/><use xlink:href="#a1000z" clip-path="url(#a1001z)" fill="transparent" stroke-width="1.68" stroke="rgba(255, 255, 255, 0.01)"/></g><g><defs><linearGradient id="idXSHc5y28yg580647298" gradientTransform="rotate(45, 0.5, 0.5)"><stop offset="0" stop-color="#96F" stop-opacity="1"/><stop offset="1" stop-color="#7033FF" stop-opacity="1"/></linearGradient></defs><path d="M 68.173 7.969 C 69.089 6.106 71.744 6.106 72.66 7.969 L 78.334 19.507 C 78.697 20.247 79.402 20.759 80.217 20.878 L 92.919 22.731 C 94.967 23.029 95.786 25.544 94.306 26.991 L 85.103 35.995 C 84.517 36.569 84.249 37.394 84.387 38.203 L 86.558 50.907 C 86.908 52.951 84.761 54.507 82.927 53.54 L 71.583 47.554 C 70.853 47.169 69.98 47.169 69.25 47.554 L 57.906 53.54 C 56.072 54.507 53.926 52.951 54.275 50.907 L 56.446 38.203 C 56.584 37.394 56.317 36.569 55.73 35.995 L 46.527 26.991 C 45.048 25.544 45.867 23.029 47.914 22.731 L 60.617 20.878 C 61.432 20.759 62.136 20.247 62.499 19.507 Z" fill="url(#idXSHc5y28yg580647298)"/></g><g><defs><linearGradient id="idPfrlo7ME8g580647298" gradientTransform="rotate(45, 0.5, 0.5)"><stop offset="0" stop-color="#96F" stop-opacity="1"/><stop offset="1" stop-color="#7033FF" stop-opacity="1"/></linearGradient></defs><path d="M 32.587 60.747 C 32.893 60.129 33.774 60.129 34.08 60.747 L 35.585 63.785 C 35.707 64.031 35.942 64.201 36.213 64.24 L 39.574 64.726 C 40.258 64.826 40.531 65.667 40.035 66.149 L 37.607 68.506 C 37.41 68.698 37.32 68.975 37.366 69.246 L 37.94 72.578 C 38.057 73.258 37.344 73.777 36.732 73.457 L 33.72 71.88 C 33.478 71.753 33.189 71.753 32.947 71.88 L 29.935 73.457 C 29.323 73.777 28.61 73.258 28.727 72.578 L 29.3 69.246 C 29.347 68.975 29.257 68.698 29.06 68.506 L 26.632 66.149 C 26.136 65.667 26.409 64.826 27.093 64.726 L 30.454 64.24 C 30.725 64.201 30.96 64.031 31.081 63.785 Z" fill="url(#idPfrlo7ME8g580647298)"/></g></svg>