<?xml version="1.0" encoding="UTF-8"?>
<svg width="27px" height="33px" viewBox="0 0 27 33" version="1.1" xmlns="http://www.w3.org/2000/svg" xmlns:xlink="http://www.w3.org/1999/xlink">
    <!-- Generator: Sketch 54 (76480) - https://sketchapp.com -->
    <title>logo</title>
    <desc>Created with Sketch.</desc>
    <g id="——MOBILE" stroke="none" stroke-width="1" fill="none" fill-rule="evenodd">
        <g id="01-mobile-bloobirds-menu" transform="translate(-21.000000, -22.000000)" fill="#1991FF">
            <g id="logo" transform="translate(21.000000, 22.000000)">
                <path d="M22.2984082,9.58804207 C22.2984082,8.42950432 23.2373761,7.49053641 24.3959138,7.49053641 C25.5544516,7.49053641 26.4941014,8.42950432 26.4941014,9.58804207 C26.4941014,10.7465798 25.5544516,11.6855477 24.3959138,11.6855477 C23.2373761,11.6855477 22.2984082,10.7465798 22.2984082,9.58804207" id="Fill-1"></path>
                <path d="M23.9367265,16.5566569 C22.1194792,14.6173506 19.6537508,13.5495047 16.9970922,13.5495047 C16.5320405,13.5495047 16.0376674,13.5924641 15.4860153,13.6804284 L15.4509361,13.6860547 C15.1787973,13.7297027 14.9228015,13.5444743 14.8791535,13.2723355 C14.8774284,13.2615798 14.876056,13.2507705 14.8750383,13.2399249 L14.8671068,13.155394 C14.8432891,12.9015562 15.0142751,12.6704501 15.2639782,12.6189793 L15.3148599,12.6084911 C18.5654482,12.0882061 20.9022986,9.10423835 20.6329505,5.81478213 C20.3676938,2.55396545 17.4635076,0.000272757564 14.0233528,0.000272757564 L3.68141658,0.000272757564 C2.02456233,0.000272757564 0.681416584,1.34341851 0.681416584,3.00027276 L0.681416584,29.5709354 C0.681416584,31.2277896 2.02456233,32.5709354 3.68141658,32.5709354 L16.6534176,32.5709354 C21.8453579,32.5709354 26.163792,28.6725479 26.4863278,23.6940404 C26.6595289,21.0305628 25.7539737,18.4952813 23.9367265,16.5566569 Z" id="Fill-3"></path>
            </g>
        </g>
    </g>
</svg>