<svg xmlns="http://www.w3.org/2000/svg" viewBox="0 0 209.24 55.14"><title>logo-nist</title><path d="M61.74,0h13V38.81a25.27,25.27,0,0,1-.17,3.89A14.64,14.64,0,0,1,60.45,55.14h-.69a14.65,14.65,0,0,1-10.13-4.45L16,13.75A1.72,1.72,0,0,0,14.64,13,1.62,1.62,0,0,0,13,14.64c0,13.49.06,27,.11,40.5H.12L.06,38.71A1.76,1.76,0,0,0,0,37.92V14A15.27,15.27,0,0,1,1.06,9.22,14.58,14.58,0,0,1,25.54,5L58.86,41.58a1.64,1.64,0,0,0,1.53.56,1.66,1.66,0,0,0,1.35-1.65V0Z" style="fill:#c8d3f3"/><path d="M81.19,0h13V40.49a1.63,1.63,0,0,0,1.66,1.67h54.93a3.15,3.15,0,0,0,2.4-1.15,4.62,4.62,0,0,0,0-5.83,3.17,3.17,0,0,0-2.27-1.13H115.5a16.81,16.81,0,0,1-8.33-2.49,17,17,0,0,1-2.62-27A16.91,16.91,0,0,1,114.89.08a1.37,1.37,0,0,0,.35-.08h94V13h-22.6q0,21.08,0,42.17h-13q0-21.07,0-42.17H116.33a5.46,5.46,0,0,0-1.81.15,3.7,3.7,0,0,0-2.23,2.29,4.51,4.51,0,0,0,1.24,5,3.12,3.12,0,0,0,2.18.69q17.37,0,34.74,0a19,19,0,0,1,5.48,1.05,17,17,0,0,1,5.68,28.57,17.25,17.25,0,0,1-10.45,4.44H95.44a14.62,14.62,0,0,1-14-12.24,23.53,23.53,0,0,1-.19-4.19q0-19.37,0-38.71Z" style="fill:#c8d3f3"/></svg>