<svg xmlns="http://www.w3.org/2000/svg" viewBox="0 0 104.92 55.14"><title>logo-w3c</title><path d="M0,.05C2.43,0,4.85,0,7.24.05Q11.85,15.51,16.45,31a17.4,17.4,0,0,0,.87,2.58c1.75-6.64,3.91-13.2,5.81-19.79a12.68,12.68,0,0,0,.75-3c-1-3.6-2.2-7.12-3.18-10.73,2.43,0,4.85-.11,7.28.12q4.89,16.67,9.89,33.32,5-16.67,9.93-33.36C56.37-.1,65,.09,73.55,0A4.71,4.71,0,0,1,75,.13c-.19,1.33.34,2.8-.46,4-3,5-5.91,10-8.87,15a4,4,0,0,0-.76,1.67,13.93,13.93,0,0,1,8,6.14C75.67,31.4,76.12,37,75.18,42.09c-.91,4.82-3.72,9.48-8.19,11.76a13.68,13.68,0,0,1-12-.23A17,17,0,0,1,47.46,44a52.22,52.22,0,0,1,5.65-2.35,13.1,13.1,0,0,0,4.06,5.5c2.2,1.48,5.5,1.7,7.47-.27C67.52,44,68.31,39.67,68,35.73c-.19-2.81-1.25-5.8-3.64-7.47-2.57-1.9-5.91-1.67-8.94-1.71a32.33,32.33,0,0,1,0-3.26c3.07-5.5,6.41-10.88,9.48-16.38-3.83-.19-7.66,0-11.48-.07a5.19,5.19,0,0,0-.73,1.25C51,13.66,49.4,19.31,47.61,24.85c-2.91,10.08-6,20.16-9,30.21h-.72c-3.26-10.61-6.44-21.23-9.67-31.88-.26-.61-.22-1.44-.79-1.9C24.11,32.54,20.66,43.72,17.25,55l-.23.19L16.45,55C11,36.64,5.46,18.36,0,.05Z" style="fill:#c8d3f3"/><path d="M103,1.08c.19-.31.23-.84.68-.95,0,2.35,1,4.66.8,7-1.25,2.47-2.62,4.85-3.83,7.32A12.67,12.67,0,0,0,94,8a7.55,7.55,0,0,0-7.36,2.13c-3.6,3.33-4.77,8.37-5.57,13a36,36,0,0,0,.3,8.3,29.81,29.81,0,0,1-.07-22.63C82.8,5.17,85.56,1.27,89.85.77c4.32-.22,7.73,3.3,9.55,6.9a1.46,1.46,0,0,0,.68-.76c1-2,2-3.86,3-5.83Z" style="fill:#c8d3f3"/><path d="M84.77,52.14A25.94,25.94,0,0,1,76.69,38.8a22.47,22.47,0,0,0,5.54,7.58,13,13,0,0,0,9.13,3.49,14.23,14.23,0,0,0,7.77-3.72,19.78,19.78,0,0,0,3.53-4.06,21.86,21.86,0,0,1,1.52-2.23c.26,1.86.94,3.68.68,5.57a20,20,0,0,1-7.51,8,11.48,11.48,0,0,1-12.58-1.33Z" style="fill:#c8d3f3"/></svg>