<svg xmlns="http://www.w3.org/2000/svg" xmlns:xlink="http://www.w3.org/1999/xlink" viewBox="0 0 100 100"><g><defs><path d="M 12.5 25.84 C 12.5 18.473 18.473 12.5 25.84 12.5 L 74.16 12.5 C 81.527 12.5 87.5 18.473 87.5 25.84 L 87.5 74.16 C 87.5 81.527 81.527 87.5 74.16 87.5 L 25.84 87.5 C 18.473 87.5 12.5 81.527 12.5 74.16 Z" id="a1109z"/><clipPath id="a1110z"><use xlink:href="#a1109z"/></clipPath><filter id="a1111z" x="-18.7%" y="-22%" width="136.3%" height="142.9%" filterUnits="objectBoundingBox"><feOffset dx="0" dy="2.5" in="SourceAlpha" result="a1113z"/><feGaussianBlur stdDeviation="2.5" in="a1113z" result="a1114z"/><feColorMatrix color-interpolation-filters="sRGB" values="0 0 0 0 0 0 0 0 0 0 0 0 0 0 0 0 0 0 0.1 0" type="matrix" in="a1114z" result="a1115z"/></filter><filter id="a1116z" x="0%" y="-1.1%" width="98.9%" height="101.1%" filterUnits="objectBoundingBox"><feGaussianBlur stdDeviation="0" in="SourceAlpha" result="a1118z"/><feOffset dx="0" dy=".84" in="a1118z" result="a1119z"/><feComposite in="a1119z" in2="SourceAlpha" operator="arithmetic" k2="-1" k3="1" result="a1120z"/><feColorMatrix color-interpolation-filters="sRGB" values="0 0 0 0 1 0 0 0 0 1 0 0 0 0 1 0 0 0 0.05 0" type="matrix" in="a1120z" result="a1121z"/></filter><linearGradient id="idMGTOZ_0JSg-562912625" gradientTransform="rotate(45, 0.5, 0.5)"><stop offset="0" stop-color="#2B2B2B" stop-opacity="1"/><stop offset="1" stop-color="#232323" stop-opacity="1"/></linearGradient></defs><g filter="url(#a1111z)"><use stroke-width="1.68" stroke="#000" fill="#000" fill-opacity="1" stroke-opacity="1" xlink:href="#a1109z" clip-path="url(#a1110z)"/></g><use xlink:href="#a1109z" fill="url(#idMGTOZ_0JSg-562912625)" stroke-opacity="0"/><use fill="#000" fill-opacity="1" filter="url(#a1116z)" xlink:href="#a1109z"/><use xlink:href="#a1109z" clip-path="url(#a1110z)" fill="transparent" stroke-width="1.68" stroke="rgba(255, 255, 255, 0.01)"/></g><g><defs><path d="M 64.167 18.333 C 64.167 8.668 72.002 0.833 81.667 0.833 L 81.667 0.833 C 91.332 0.833 99.167 8.668 99.167 18.333 L 99.167 18.333 C 99.167 27.998 91.332 35.833 81.667 35.833 L 81.667 35.833 C 72.002 35.833 64.167 27.998 64.167 18.333 Z" id="a1122z"/><filter id="a1124z" x="0%" y="-2.4%" width="99.7%" height="104.5%" filterUnits="objectBoundingBox"><feGaussianBlur stdDeviation="0" in="SourceAlpha" result="a1126z"/><feOffset dx="0" dy=".84" in="a1126z" result="a1127z"/><feComposite in="a1127z" in2="SourceAlpha" operator="arithmetic" k2="-1" k3="1" result="a1128z"/><feColorMatrix color-interpolation-filters="sRGB" values="0 0 0 0 1 0 0 0 0 1 0 0 0 0 1 0 0 0 0.1 0" type="matrix" in="a1128z" result="a1129z"/></filter><linearGradient id="idMEqqq2Sp7g-616785380" gradientTransform="rotate(45, 0.5, 0.5)"><stop offset="0" stop-color="#0cf" stop-opacity="1"/><stop offset="1" stop-color="#0bf" stop-opacity="1"/></linearGradient></defs><use xlink:href="#a1122z" fill="url(#idMEqqq2Sp7g-616785380)" clip-path="url(#a1123z)"/><use fill="#000" fill-opacity="1" filter="url(#a1124z)" xlink:href="#a1122z"/></g><g><defs><path d="M 35 50.417 C 35 42.363 41.529 35.833 49.583 35.833 L 49.583 35.833 C 57.637 35.833 64.167 42.363 64.167 50.417 L 64.167 50.417 C 64.167 58.471 57.637 65 49.583 65 L 49.583 65 C 41.529 65 35 58.471 35 50.417 Z" id="a1130z"/><filter id="a1132z" x="0%" y="-2.9%" width="99.7%" height="105.4%" filterUnits="objectBoundingBox"><feGaussianBlur stdDeviation="0" in="SourceAlpha" result="a1134z"/><feOffset dx="0" dy=".84" in="a1134z" result="a1135z"/><feComposite in="a1135z" in2="SourceAlpha" operator="arithmetic" k2="-1" k3="1" result="a1136z"/><feColorMatrix color-interpolation-filters="sRGB" values="0 0 0 0 1 0 0 0 0 1 0 0 0 0 1 0 0 0 0.1 0" type="matrix" in="a1136z" result="a1137z"/></filter><linearGradient id="idQ8ipLXJxig-616785380" gradientTransform="rotate(45, 0.5, 0.5)"><stop offset="0" stop-color="#0cf" stop-opacity="1"/><stop offset="1" stop-color="#0bf" stop-opacity="1"/></linearGradient></defs><use xlink:href="#a1130z" fill="url(#idQ8ipLXJxig-616785380)" clip-path="url(#a1131z)"/><use fill="#000" fill-opacity="1" filter="url(#a1132z)" xlink:href="#a1130z"/></g><g><defs><path d="M 19.167 74.167 C 19.167 70.485 22.151 67.5 25.833 67.5 L 25.833 67.5 C 29.515 67.5 32.5 70.485 32.5 74.167 L 32.5 74.167 C 32.5 77.849 29.515 80.833 25.833 80.833 L 25.833 80.833 C 22.151 80.833 19.167 77.849 19.167 74.167 Z" id="a1138z"/><filter id="a1140z" x="0%" y="-6.3%" width="99.3%" height="111.8%" filterUnits="objectBoundingBox"><feGaussianBlur stdDeviation="0" in="SourceAlpha" result="a1142z"/><feOffset dx="0" dy=".84" in="a1142z" result="a1143z"/><feComposite in="a1143z" in2="SourceAlpha" operator="arithmetic" k2="-1" k3="1" result="a1144z"/><feColorMatrix color-interpolation-filters="sRGB" values="0 0 0 0 1 0 0 0 0 1 0 0 0 0 1 0 0 0 0.1 0" type="matrix" in="a1144z" result="a1145z"/></filter><linearGradient id="idMKfGZ1HH1g-616785380" gradientTransform="rotate(45, 0.5, 0.5)"><stop offset="0" stop-color="#0cf" stop-opacity="1"/><stop offset="1" stop-color="#0bf" stop-opacity="1"/></linearGradient></defs><use xlink:href="#a1138z" fill="url(#idMKfGZ1HH1g-616785380)" clip-path="url(#a1139z)"/><use fill="#000" fill-opacity="1" filter="url(#a1140z)" xlink:href="#a1138z"/></g></svg>