<svg width="300" height="120" viewBox="0 0 300 120" fill="none" xmlns="http://www.w3.org/2000/svg">
<g id="WhiteLogo300-120">
<g id="icone">
<path id="Vector 6" d="M90.8333 51.6061L91.0362 53.0202H90.6812L90.1739 52.8687L76.2246 41.7071L74.1449 40.0404L72.471 38.7778L70.8985 37.8182L68.8696 36.7576L67.1957 35.9495L65.6739 35.2929L63.5435 34.6869L61.3623 34.3333L59.2826 34.0808L56.8478 33.8788L54.2609 34.0808L51.8768 34.4848L50.0507 34.7879L48.0725 35.3939L46.2464 36.101L44.2681 36.9596L42.442 38.0707L40.9203 39.2828L39.6014 40.3434L38.3333 41.404L37.0145 42.7172L35.5942 44.3838L34.4275 46.0505L33.413 47.7172L32.3986 49.6869L31.6377 51.303L30.8261 53.9293L30.4203 55.697L30.2174 57.4646L30.0145 59.1313V61.404L30.2174 63.8283L30.6232 66.2525L30.9783 68.1717L31.4855 70.0909L32.2971 71.7071L32.9565 73.2222L33.6159 74.6364L34.8841 76.6061L36.3043 78.1717L37.6232 79.7879L39.6014 81.7071L54.8188 94.0808L56.442 95.3939V96H55.9348H54.6667L52.8913 95.8485L51.2681 95.596L49.3406 95.2424L47.4638 94.7374L45.942 94.2828L44.4203 93.6768L42.5435 92.9697L40.6667 91.9596L38.7899 91L36.9638 89.8889L35.0362 88.4747L33.1087 86.8586L31.2319 84.8889L29.5072 82.9697L28.2391 81.202L27.0217 79.3333L26.058 77.7172L25.0942 75.6465L24.1812 73.7778L23.2174 71.404L22.6594 68.5758L22.4058 66.404L22 62.6667V59.9899L22 57.5152L22.4058 54.8384L22.9638 52.5152L23.5725 50.4949L24.2319 48.4747L25.0435 46.5051L25.7029 45.0909L26.3623 43.7778L27.3768 42.1616L28.3406 40.7475L29.4058 39.2828L30.471 38.0707L31.7899 36.6566L32.7536 35.6465L34.1232 34.4848L35.5942 33.3232L36.913 32.3131L38.1304 31.404L39.3986 30.596L40.9203 29.7879L41.8841 29.2828L43.9638 28.4242L45.7391 27.7172L47.2609 27.2121L49.1884 26.9596L51.1667 26.5051L53.5507 26.202L55.4783 26H57.3551H58.9783L61.3116 26.202L63.1377 26.5051L65.2174 26.9596L67.3985 27.5657L69.3261 28.1717L71.2029 28.8283L73.2826 29.7374L75.1087 30.798L76.7319 31.8586L78.913 33.3737L80.7899 34.8889L82.3116 36.404L83.6812 37.8182L84.6957 39.0808L85.7609 40.5455L86.7246 41.9091L87.4348 43.2222L88.0942 44.3333L88.7536 45.697L89.3623 47.1111L89.8188 48.1717L90.1739 49.2828L90.529 50.3939L90.8333 51.6061Z" fill="#FFFAFF"/>
<path id="Vector 4" d="M54.3116 63.6263L81.5508 85.5455H81.9565L86.0652 80.596L86.3696 79.9394L86.0652 79.3838L59.587 58.0707L58.6739 57.5152L57.5073 57.2121H56.4421L55.4783 57.5152L54.5652 58.0707L53.9565 58.5758L53.6015 59.3838L53.2464 60.3434V61.303V62.2121L53.6015 62.9192L54.3116 63.6263Z" fill="#FFFAFF"/>
<path id="Vector 5" d="M68.8696 93.8787L67.3478 94.2323L42.8478 74.2828L41.4275 72.7171L40.1594 70.7474L38.9927 68.7272L38.2319 66.8585L37.9782 64.9393L37.5724 63.1211V61.505V60.1919V58.8282L37.8768 57.2121L38.2319 55.7979L38.9927 54.0807L39.4493 52.8181L39.9058 51.7575L40.413 50.7979L41.2246 49.4848L41.9855 48.5252L43 47.4141L43.8623 46.505L44.7753 45.6464L46.0942 44.6868L47.3116 43.9797L48.529 43.2222L49.6956 42.7171L51.3188 42.0605L52.6377 41.707L54.058 41.4545L55.529 41.303H56.7971H57.9638L59.2319 41.5555L60.5 41.808L61.7681 42.0605L62.8333 42.3636L63.9493 42.7171L65.0145 43.2222L66.1304 43.7777L67.1956 44.3333L68.2609 45.0403L69.1739 45.7979L90.8333 63.3737L91.7971 64.2828L92 65.0403L90.1739 72.2121H89.5652L88.7536 71.6565L65.0145 52.5656L63.6449 51.5555L62.2246 50.7979L60.9058 50.1919L59.8913 49.7878L58.9782 49.5858L57.9638 49.4848H56.5435L55.0725 49.5858L53.5507 49.7878L52.384 50.1919L51.1667 50.7979L49.9493 51.5555L48.8333 52.5656L47.9203 53.6767L47.058 54.8888L46.3478 55.7979L45.7391 56.8585L45.3333 58.4242V60.1919V62.2626L45.7391 64.2828L46.3478 65.7474L47.058 67.2121L47.9203 68.3232L48.8333 69.2828L70.2898 86.707L74.2464 89.7373L75.1087 90.3939V90.8484L73.5869 91.7575L70.7464 93.0706L68.8696 93.8787Z" fill="#FFFAFF"/>
</g>
<path id="acert.io" d="M125.8 88.944V78.672C125.8 72.912 122.776 69.792 115.72 69.792C112.84 69.792 109.48 70.416 106.312 71.664L107.848 76.224C110.44 75.36 112.888 74.88 114.568 74.88C117.784 74.88 119.128 75.888 119.128 79.056V80.304H116.2C108.664 80.304 104.488 83.328 104.488 88.896C104.488 93.504 107.656 96.768 112.744 96.768C115.768 96.768 118.552 95.712 120.376 92.928C121.432 95.472 123.352 96.432 126.232 96.672L127.672 92.16C126.424 91.728 125.8 91.008 125.8 88.944ZM114.616 91.872C112.504 91.872 111.352 90.576 111.352 88.32C111.352 85.536 113.176 84.192 116.872 84.192H119.128V89.04C118.072 90.864 116.584 91.872 114.616 91.872ZM143.218 69.792C135.778 69.792 131.074 75.408 131.074 83.472C131.074 91.584 135.73 96.768 143.314 96.768C146.674 96.768 149.362 95.664 151.666 93.792L148.69 89.52C146.818 90.72 145.522 91.296 143.65 91.296C140.434 91.296 138.274 89.328 138.274 83.424C138.274 77.52 140.29 75.072 143.698 75.072C145.57 75.072 147.058 75.648 148.69 76.896L151.666 72.864C149.266 70.8 146.626 69.792 143.218 69.792ZM176.333 82.704C176.333 74.592 172.061 69.792 164.861 69.792C157.421 69.792 153.293 75.744 153.293 83.424C153.293 91.392 157.565 96.768 165.725 96.768C169.709 96.768 172.877 95.328 175.373 93.312L172.541 89.472C170.333 91.008 168.509 91.68 166.349 91.68C163.085 91.68 160.781 90.24 160.301 85.344H176.189C176.237 84.624 176.333 83.568 176.333 82.704ZM169.565 81.072H160.301C160.637 76.272 162.317 74.448 165.005 74.448C168.269 74.448 169.565 76.944 169.565 80.784V81.072ZM194.369 69.84C191.441 69.84 188.945 71.952 187.745 75.504L187.169 70.56H181.217V96H188.033V82.992C188.897 78.816 190.385 76.464 193.505 76.464C194.369 76.464 194.993 76.608 195.809 76.8L196.913 70.224C196.097 69.984 195.281 69.84 194.369 69.84ZM213.208 90.48C212.152 91.056 211.24 91.344 210.328 91.344C208.6 91.344 207.784 90.384 207.784 87.888V75.36H212.968L213.64 70.56H207.784V64.176L200.968 64.992V70.56H197.176V75.36H200.968V88.032C200.968 93.696 203.656 96.72 208.936 96.768C211.192 96.768 213.688 96.096 215.56 94.8L213.208 90.48ZM221.259 88.56C219.003 88.56 217.179 90.432 217.179 92.64C217.179 94.896 219.003 96.768 221.259 96.768C223.563 96.768 225.387 94.896 225.387 92.64C225.387 90.432 223.563 88.56 221.259 88.56ZM233.75 57.456C231.302 57.456 229.622 59.184 229.622 61.44C229.622 63.696 231.302 65.424 233.75 65.424C236.198 65.424 237.926 63.696 237.926 61.44C237.926 59.184 236.198 57.456 233.75 57.456ZM237.158 70.56H230.342V96H237.158V70.56ZM254.548 69.792C246.868 69.792 242.308 75.168 242.308 83.28C242.308 91.728 246.916 96.768 254.5 96.768C262.132 96.768 266.692 91.344 266.692 83.28C266.692 74.832 262.132 69.792 254.548 69.792ZM254.548 74.88C257.86 74.88 259.588 77.424 259.588 83.28C259.588 89.088 257.86 91.68 254.5 91.68C251.14 91.68 249.412 89.136 249.412 83.28C249.412 77.472 251.14 74.88 254.548 74.88Z" fill="#FFFAFF"/>
<path id="reframing digital access" d="M107.86 37.915C108.14 37.915 108.4 37.945 108.64 38.005L108.385 39.355C108.145 39.295 107.915 39.265 107.695 39.265C107.205 39.265 106.81 39.445 106.51 39.805C106.21 40.165 105.975 40.725 105.805 41.485V46H104.425V38.095H105.61L105.745 39.7C105.955 39.11 106.24 38.665 106.6 38.365C106.96 38.065 107.38 37.915 107.86 37.915ZM115.727 41.815C115.727 42.045 115.717 42.28 115.697 42.52H110.657C110.717 43.39 110.937 44.03 111.317 44.44C111.697 44.85 112.187 45.055 112.787 45.055C113.167 45.055 113.517 45 113.837 44.89C114.157 44.78 114.492 44.605 114.842 44.365L115.442 45.19C114.602 45.85 113.682 46.18 112.682 46.18C111.582 46.18 110.722 45.82 110.102 45.1C109.492 44.38 109.187 43.39 109.187 42.13C109.187 41.31 109.317 40.585 109.577 39.955C109.847 39.315 110.227 38.815 110.717 38.455C111.217 38.095 111.802 37.915 112.472 37.915C113.522 37.915 114.327 38.26 114.887 38.95C115.447 39.64 115.727 40.595 115.727 41.815ZM114.362 41.41C114.362 40.63 114.207 40.035 113.897 39.625C113.587 39.215 113.122 39.01 112.502 39.01C111.372 39.01 110.757 39.84 110.657 41.5H114.362V41.41ZM120.616 35.86C120.196 35.86 119.896 35.955 119.716 36.145C119.536 36.325 119.446 36.61 119.446 37V38.095H121.366L121.216 39.16H119.446V46H118.066V39.16H116.656V38.095H118.066V37.015C118.066 36.335 118.281 35.79 118.711 35.38C119.151 34.96 119.761 34.75 120.541 34.75C120.901 34.75 121.221 34.785 121.501 34.855C121.791 34.915 122.101 35.015 122.431 35.155L121.996 36.16C121.546 35.96 121.086 35.86 120.616 35.86ZM126.39 37.915C126.67 37.915 126.93 37.945 127.17 38.005L126.915 39.355C126.675 39.295 126.445 39.265 126.225 39.265C125.735 39.265 125.34 39.445 125.04 39.805C124.74 40.165 124.505 40.725 124.335 41.485V46H122.955V38.095H124.14L124.275 39.7C124.485 39.11 124.77 38.665 125.13 38.365C125.49 38.065 125.91 37.915 126.39 37.915ZM133.539 44.155C133.539 44.475 133.594 44.715 133.704 44.875C133.814 45.025 133.979 45.14 134.199 45.22L133.884 46.18C133.474 46.13 133.144 46.015 132.894 45.835C132.644 45.655 132.459 45.375 132.339 44.995C131.809 45.785 131.024 46.18 129.984 46.18C129.204 46.18 128.589 45.96 128.139 45.52C127.689 45.08 127.464 44.505 127.464 43.795C127.464 42.955 127.764 42.31 128.364 41.86C128.974 41.41 129.834 41.185 130.944 41.185H132.159V40.6C132.159 40.04 132.024 39.64 131.754 39.4C131.484 39.16 131.069 39.04 130.509 39.04C129.929 39.04 129.219 39.18 128.379 39.46L128.034 38.455C129.014 38.095 129.924 37.915 130.764 37.915C131.694 37.915 132.389 38.145 132.849 38.605C133.309 39.055 133.539 39.7 133.539 40.54V44.155ZM130.299 45.145C131.089 45.145 131.709 44.735 132.159 43.915V42.1H131.124C129.664 42.1 128.934 42.64 128.934 43.72C128.934 44.19 129.049 44.545 129.279 44.785C129.509 45.025 129.849 45.145 130.299 45.145ZM144.308 37.915C144.958 37.915 145.478 38.135 145.868 38.575C146.258 39.005 146.453 39.59 146.453 40.33V46H145.073V40.525C145.073 39.505 144.703 38.995 143.963 38.995C143.573 38.995 143.243 39.11 142.973 39.34C142.703 39.56 142.413 39.91 142.103 40.39V46H140.723V40.525C140.723 39.505 140.353 38.995 139.613 38.995C139.213 38.995 138.878 39.11 138.608 39.34C138.338 39.57 138.053 39.92 137.753 40.39V46H136.373V38.095H137.558L137.678 39.25C138.268 38.36 139.028 37.915 139.958 37.915C140.448 37.915 140.863 38.04 141.203 38.29C141.553 38.54 141.803 38.89 141.953 39.34C142.263 38.88 142.603 38.53 142.973 38.29C143.353 38.04 143.798 37.915 144.308 37.915ZM150.615 38.095V46H149.235V38.095H150.615ZM149.91 34.3C150.2 34.3 150.435 34.39 150.615 34.57C150.795 34.75 150.885 34.975 150.885 35.245C150.885 35.515 150.795 35.74 150.615 35.92C150.435 36.09 150.2 36.175 149.91 36.175C149.63 36.175 149.4 36.09 149.22 35.92C149.04 35.74 148.95 35.515 148.95 35.245C148.95 34.975 149.04 34.75 149.22 34.57C149.4 34.39 149.63 34.3 149.91 34.3ZM157.188 37.915C157.908 37.915 158.468 38.13 158.868 38.56C159.278 38.99 159.483 39.58 159.483 40.33V46H158.103V40.525C158.103 39.965 157.998 39.57 157.788 39.34C157.578 39.11 157.268 38.995 156.858 38.995C156.438 38.995 156.068 39.115 155.748 39.355C155.428 39.595 155.128 39.94 154.848 40.39V46H153.468V38.095H154.653L154.773 39.265C155.053 38.845 155.398 38.515 155.808 38.275C156.228 38.035 156.688 37.915 157.188 37.915ZM168.632 38.455C168.332 38.555 168.002 38.62 167.642 38.65C167.282 38.68 166.842 38.695 166.322 38.695C167.252 39.115 167.717 39.78 167.717 40.69C167.717 41.48 167.447 42.125 166.907 42.625C166.367 43.125 165.632 43.375 164.702 43.375C164.342 43.375 164.007 43.325 163.697 43.225C163.577 43.305 163.482 43.415 163.412 43.555C163.342 43.685 163.307 43.82 163.307 43.96C163.307 44.39 163.652 44.605 164.342 44.605H165.602C166.132 44.605 166.602 44.7 167.012 44.89C167.422 45.08 167.737 45.34 167.957 45.67C168.187 46 168.302 46.375 168.302 46.795C168.302 47.565 167.987 48.155 167.357 48.565C166.727 48.985 165.807 49.195 164.597 49.195C163.747 49.195 163.072 49.105 162.572 48.925C162.082 48.755 161.732 48.495 161.522 48.145C161.312 47.795 161.207 47.345 161.207 46.795H162.452C162.452 47.115 162.512 47.365 162.632 47.545C162.752 47.735 162.967 47.875 163.277 47.965C163.587 48.065 164.027 48.115 164.597 48.115C165.427 48.115 166.017 48.01 166.367 47.8C166.727 47.6 166.907 47.295 166.907 46.885C166.907 46.515 166.767 46.235 166.487 46.045C166.207 45.855 165.817 45.76 165.317 45.76H164.072C163.402 45.76 162.892 45.62 162.542 45.34C162.202 45.05 162.032 44.69 162.032 44.26C162.032 44 162.107 43.75 162.257 43.51C162.407 43.27 162.622 43.055 162.902 42.865C162.442 42.625 162.102 42.33 161.882 41.98C161.672 41.62 161.567 41.185 161.567 40.675C161.567 40.145 161.697 39.67 161.957 39.25C162.227 38.83 162.592 38.505 163.052 38.275C163.522 38.035 164.042 37.915 164.612 37.915C165.232 37.925 165.752 37.905 166.172 37.855C166.592 37.795 166.937 37.72 167.207 37.63C167.487 37.53 167.827 37.39 168.227 37.21L168.632 38.455ZM164.612 38.905C164.092 38.905 163.687 39.07 163.397 39.4C163.117 39.72 162.977 40.145 162.977 40.675C162.977 41.215 163.122 41.65 163.412 41.98C163.702 42.3 164.112 42.46 164.642 42.46C165.182 42.46 165.592 42.305 165.872 41.995C166.162 41.675 166.307 41.23 166.307 40.66C166.307 39.49 165.742 38.905 164.612 38.905ZM180.14 34.915V46H178.925L178.79 44.905C178.53 45.305 178.205 45.62 177.815 45.85C177.425 46.07 176.99 46.18 176.51 46.18C175.57 46.18 174.835 45.81 174.305 45.07C173.785 44.33 173.525 43.335 173.525 42.085C173.525 41.275 173.65 40.555 173.9 39.925C174.15 39.295 174.51 38.805 174.98 38.455C175.45 38.095 176 37.915 176.63 37.915C177.44 37.915 178.15 38.24 178.76 38.89V34.75L180.14 34.915ZM176.81 45.085C177.23 45.085 177.59 44.99 177.89 44.8C178.19 44.6 178.48 44.305 178.76 43.915V40.045C178.5 39.705 178.22 39.45 177.92 39.28C177.63 39.1 177.3 39.01 176.93 39.01C176.32 39.01 175.845 39.265 175.505 39.775C175.175 40.285 175.01 41.045 175.01 42.055C175.01 43.075 175.165 43.835 175.475 44.335C175.785 44.835 176.23 45.085 176.81 45.085ZM184.365 38.095V46H182.985V38.095H184.365ZM183.66 34.3C183.95 34.3 184.185 34.39 184.365 34.57C184.545 34.75 184.635 34.975 184.635 35.245C184.635 35.515 184.545 35.74 184.365 35.92C184.185 36.09 183.95 36.175 183.66 36.175C183.38 36.175 183.15 36.09 182.97 35.92C182.79 35.74 182.7 35.515 182.7 35.245C182.7 34.975 182.79 34.75 182.97 34.57C183.15 34.39 183.38 34.3 183.66 34.3ZM193.593 38.455C193.293 38.555 192.963 38.62 192.603 38.65C192.243 38.68 191.803 38.695 191.283 38.695C192.213 39.115 192.678 39.78 192.678 40.69C192.678 41.48 192.408 42.125 191.868 42.625C191.328 43.125 190.593 43.375 189.663 43.375C189.303 43.375 188.968 43.325 188.658 43.225C188.538 43.305 188.443 43.415 188.373 43.555C188.303 43.685 188.268 43.82 188.268 43.96C188.268 44.39 188.613 44.605 189.303 44.605H190.563C191.093 44.605 191.563 44.7 191.973 44.89C192.383 45.08 192.698 45.34 192.918 45.67C193.148 46 193.263 46.375 193.263 46.795C193.263 47.565 192.948 48.155 192.318 48.565C191.688 48.985 190.768 49.195 189.558 49.195C188.708 49.195 188.033 49.105 187.533 48.925C187.043 48.755 186.693 48.495 186.483 48.145C186.273 47.795 186.168 47.345 186.168 46.795H187.413C187.413 47.115 187.473 47.365 187.593 47.545C187.713 47.735 187.928 47.875 188.238 47.965C188.548 48.065 188.988 48.115 189.558 48.115C190.388 48.115 190.978 48.01 191.328 47.8C191.688 47.6 191.868 47.295 191.868 46.885C191.868 46.515 191.728 46.235 191.448 46.045C191.168 45.855 190.778 45.76 190.278 45.76H189.033C188.363 45.76 187.853 45.62 187.503 45.34C187.163 45.05 186.993 44.69 186.993 44.26C186.993 44 187.068 43.75 187.218 43.51C187.368 43.27 187.583 43.055 187.863 42.865C187.403 42.625 187.063 42.33 186.843 41.98C186.633 41.62 186.528 41.185 186.528 40.675C186.528 40.145 186.658 39.67 186.918 39.25C187.188 38.83 187.553 38.505 188.013 38.275C188.483 38.035 189.003 37.915 189.573 37.915C190.193 37.925 190.713 37.905 191.133 37.855C191.553 37.795 191.898 37.72 192.168 37.63C192.448 37.53 192.788 37.39 193.188 37.21L193.593 38.455ZM189.573 38.905C189.053 38.905 188.648 39.07 188.358 39.4C188.078 39.72 187.938 40.145 187.938 40.675C187.938 41.215 188.083 41.65 188.373 41.98C188.663 42.3 189.073 42.46 189.603 42.46C190.143 42.46 190.553 42.305 190.833 41.995C191.123 41.675 191.268 41.23 191.268 40.66C191.268 39.49 190.703 38.905 189.573 38.905ZM196.391 38.095V46H195.011V38.095H196.391ZM195.686 34.3C195.976 34.3 196.211 34.39 196.391 34.57C196.571 34.75 196.661 34.975 196.661 35.245C196.661 35.515 196.571 35.74 196.391 35.92C196.211 36.09 195.976 36.175 195.686 36.175C195.406 36.175 195.176 36.09 194.996 35.92C194.816 35.74 194.726 35.515 194.726 35.245C194.726 34.975 194.816 34.75 194.996 34.57C195.176 34.39 195.406 34.3 195.686 34.3ZM203.234 45.64C202.714 46 202.124 46.18 201.464 46.18C200.794 46.18 200.269 45.99 199.889 45.61C199.519 45.22 199.334 44.66 199.334 43.93V39.16H197.954V38.095H199.334V36.31L200.714 36.145V38.095H202.589L202.439 39.16H200.714V43.87C200.714 44.28 200.784 44.58 200.924 44.77C201.074 44.95 201.319 45.04 201.659 45.04C201.969 45.04 202.319 44.935 202.709 44.725L203.234 45.64ZM209.887 44.155C209.887 44.475 209.942 44.715 210.052 44.875C210.162 45.025 210.327 45.14 210.547 45.22L210.232 46.18C209.822 46.13 209.492 46.015 209.242 45.835C208.992 45.655 208.807 45.375 208.687 44.995C208.157 45.785 207.372 46.18 206.332 46.18C205.552 46.18 204.937 45.96 204.487 45.52C204.037 45.08 203.812 44.505 203.812 43.795C203.812 42.955 204.112 42.31 204.712 41.86C205.322 41.41 206.182 41.185 207.292 41.185H208.507V40.6C208.507 40.04 208.372 39.64 208.102 39.4C207.832 39.16 207.417 39.04 206.857 39.04C206.277 39.04 205.567 39.18 204.727 39.46L204.382 38.455C205.362 38.095 206.272 37.915 207.112 37.915C208.042 37.915 208.737 38.145 209.197 38.605C209.657 39.055 209.887 39.7 209.887 40.54V44.155ZM206.647 45.145C207.437 45.145 208.057 44.735 208.507 43.915V42.1H207.472C206.012 42.1 205.282 42.64 205.282 43.72C205.282 44.19 205.397 44.545 205.627 44.785C205.857 45.025 206.197 45.145 206.647 45.145ZM214.149 46.18C213.639 46.18 213.234 46.03 212.934 45.73C212.644 45.42 212.499 44.99 212.499 44.44V34.915L213.879 34.75V44.41C213.879 44.63 213.914 44.79 213.984 44.89C214.064 44.99 214.194 45.04 214.374 45.04C214.564 45.04 214.734 45.01 214.884 44.95L215.244 45.91C214.914 46.09 214.549 46.18 214.149 46.18ZM226.264 44.155C226.264 44.475 226.319 44.715 226.429 44.875C226.539 45.025 226.704 45.14 226.924 45.22L226.609 46.18C226.199 46.13 225.869 46.015 225.619 45.835C225.369 45.655 225.184 45.375 225.064 44.995C224.534 45.785 223.749 46.18 222.709 46.18C221.929 46.18 221.314 45.96 220.864 45.52C220.414 45.08 220.189 44.505 220.189 43.795C220.189 42.955 220.489 42.31 221.089 41.86C221.699 41.41 222.559 41.185 223.669 41.185H224.884V40.6C224.884 40.04 224.749 39.64 224.479 39.4C224.209 39.16 223.794 39.04 223.234 39.04C222.654 39.04 221.944 39.18 221.104 39.46L220.759 38.455C221.739 38.095 222.649 37.915 223.489 37.915C224.419 37.915 225.114 38.145 225.574 38.605C226.034 39.055 226.264 39.7 226.264 40.54V44.155ZM223.024 45.145C223.814 45.145 224.434 44.735 224.884 43.915V42.1H223.849C222.389 42.1 221.659 42.64 221.659 43.72C221.659 44.19 221.774 44.545 222.004 44.785C222.234 45.025 222.574 45.145 223.024 45.145ZM231.978 37.915C232.448 37.915 232.878 37.985 233.268 38.125C233.658 38.255 234.033 38.47 234.393 38.77L233.733 39.64C233.453 39.44 233.178 39.295 232.908 39.205C232.648 39.105 232.358 39.055 232.038 39.055C231.398 39.055 230.898 39.31 230.538 39.82C230.188 40.33 230.013 41.085 230.013 42.085C230.013 43.085 230.188 43.825 230.538 44.305C230.888 44.775 231.388 45.01 232.038 45.01C232.348 45.01 232.633 44.965 232.893 44.875C233.153 44.775 233.443 44.62 233.763 44.41L234.393 45.31C233.673 45.89 232.868 46.18 231.978 46.18C230.908 46.18 230.063 45.82 229.443 45.1C228.833 44.38 228.528 43.385 228.528 42.115C228.528 41.275 228.668 40.54 228.948 39.91C229.228 39.28 229.623 38.79 230.133 38.44C230.653 38.09 231.268 37.915 231.978 37.915ZM238.848 37.915C239.318 37.915 239.748 37.985 240.138 38.125C240.528 38.255 240.903 38.47 241.263 38.77L240.603 39.64C240.323 39.44 240.048 39.295 239.778 39.205C239.518 39.105 239.228 39.055 238.908 39.055C238.268 39.055 237.768 39.31 237.408 39.82C237.058 40.33 236.883 41.085 236.883 42.085C236.883 43.085 237.058 43.825 237.408 44.305C237.758 44.775 238.258 45.01 238.908 45.01C239.218 45.01 239.503 44.965 239.763 44.875C240.023 44.775 240.313 44.62 240.633 44.41L241.263 45.31C240.543 45.89 239.738 46.18 238.848 46.18C237.778 46.18 236.933 45.82 236.313 45.1C235.703 44.38 235.398 43.385 235.398 42.115C235.398 41.275 235.538 40.54 235.818 39.91C236.098 39.28 236.493 38.79 237.003 38.44C237.523 38.09 238.138 37.915 238.848 37.915ZM248.808 41.815C248.808 42.045 248.798 42.28 248.778 42.52H243.738C243.798 43.39 244.018 44.03 244.398 44.44C244.778 44.85 245.268 45.055 245.868 45.055C246.248 45.055 246.598 45 246.918 44.89C247.238 44.78 247.573 44.605 247.923 44.365L248.523 45.19C247.683 45.85 246.763 46.18 245.763 46.18C244.663 46.18 243.803 45.82 243.183 45.1C242.573 44.38 242.268 43.39 242.268 42.13C242.268 41.31 242.398 40.585 242.658 39.955C242.928 39.315 243.308 38.815 243.798 38.455C244.298 38.095 244.883 37.915 245.553 37.915C246.603 37.915 247.408 38.26 247.968 38.95C248.528 39.64 248.808 40.595 248.808 41.815ZM247.443 41.41C247.443 40.63 247.288 40.035 246.978 39.625C246.668 39.215 246.203 39.01 245.583 39.01C244.453 39.01 243.838 39.84 243.738 41.5H247.443V41.41ZM253.157 37.915C253.697 37.915 254.182 37.99 254.612 38.14C255.042 38.29 255.452 38.515 255.842 38.815L255.257 39.685C254.897 39.455 254.552 39.285 254.222 39.175C253.902 39.065 253.562 39.01 253.202 39.01C252.752 39.01 252.397 39.105 252.137 39.295C251.877 39.475 251.747 39.725 251.747 40.045C251.747 40.365 251.867 40.615 252.107 40.795C252.357 40.975 252.802 41.15 253.442 41.32C254.322 41.54 254.977 41.84 255.407 42.22C255.847 42.6 256.067 43.12 256.067 43.78C256.067 44.56 255.762 45.155 255.152 45.565C254.552 45.975 253.817 46.18 252.947 46.18C251.747 46.18 250.752 45.835 249.962 45.145L250.697 44.305C251.367 44.815 252.107 45.07 252.917 45.07C253.437 45.07 253.847 44.965 254.147 44.755C254.457 44.535 254.612 44.24 254.612 43.87C254.612 43.6 254.557 43.385 254.447 43.225C254.337 43.055 254.147 42.91 253.877 42.79C253.607 42.66 253.212 42.525 252.692 42.385C251.852 42.165 251.242 41.87 250.862 41.5C250.492 41.13 250.307 40.66 250.307 40.09C250.307 39.68 250.427 39.31 250.667 38.98C250.917 38.64 251.257 38.38 251.687 38.2C252.127 38.01 252.617 37.915 253.157 37.915ZM260.012 37.915C260.552 37.915 261.037 37.99 261.467 38.14C261.897 38.29 262.307 38.515 262.697 38.815L262.112 39.685C261.752 39.455 261.407 39.285 261.077 39.175C260.757 39.065 260.417 39.01 260.057 39.01C259.607 39.01 259.252 39.105 258.992 39.295C258.732 39.475 258.602 39.725 258.602 40.045C258.602 40.365 258.722 40.615 258.962 40.795C259.212 40.975 259.657 41.15 260.297 41.32C261.177 41.54 261.832 41.84 262.262 42.22C262.702 42.6 262.922 43.12 262.922 43.78C262.922 44.56 262.617 45.155 262.007 45.565C261.407 45.975 260.672 46.18 259.802 46.18C258.602 46.18 257.607 45.835 256.817 45.145L257.552 44.305C258.222 44.815 258.962 45.07 259.772 45.07C260.292 45.07 260.702 44.965 261.002 44.755C261.312 44.535 261.467 44.24 261.467 43.87C261.467 43.6 261.412 43.385 261.302 43.225C261.192 43.055 261.002 42.91 260.732 42.79C260.462 42.66 260.067 42.525 259.547 42.385C258.707 42.165 258.097 41.87 257.717 41.5C257.347 41.13 257.162 40.66 257.162 40.09C257.162 39.68 257.282 39.31 257.522 38.98C257.772 38.64 258.112 38.38 258.542 38.2C258.982 38.01 259.472 37.915 260.012 37.915Z" fill="#FFFAFF"/>
</g>
</svg>
