<svg width="64" height="64" viewBox="0 0 64 64" fill="none" xmlns="http://www.w3.org/2000/svg">
<path d="M56.7467 25.1291L56.8951 26.1634L56.6354 26.1634L56.2644 26.0526L46.0615 17.8887L44.5403 16.6696L43.316 15.7461L42.1658 15.0442L40.6818 14.2685L39.4574 13.6774L38.3444 13.1972L36.7861 12.7539L35.1907 12.4953L33.6696 12.3106L31.8887 12.1628L29.9965 12.3106L28.2528 12.6061L26.9171 12.8278L25.4702 13.2711L24.1345 13.7882L22.6876 14.4162L21.3519 15.2289L20.2389 16.1155L19.2742 16.8913L18.3467 17.667L17.3821 18.6275L16.3432 19.8465L15.4899 21.0656L14.7478 22.2846L14.0058 23.7253L13.4493 24.9074L12.8557 26.8284L12.5589 28.1213L12.4105 29.4142L12.2621 30.6333V32.2956L12.4105 34.0688L12.7073 35.8419L12.967 37.2457L13.338 38.6494L13.9316 39.8315L14.4139 40.9398L14.8963 41.9741L15.8238 43.4148L16.8626 44.56L17.8273 45.7421L19.2742 47.1458L30.4047 56.1963L31.5919 57.1568V57.6001H31.2209H30.2934L28.9948 57.4892L27.8076 57.3045L26.3977 57.046L25.025 56.6765L23.9119 56.3441L22.7989 55.9008L21.4261 55.3836L20.0534 54.6448L18.6806 53.9429L17.345 53.1302L15.9351 52.0959L14.5252 50.9138L13.1525 49.4731L11.891 48.0693L10.9635 46.7764L10.0731 45.4096L9.36814 44.2275L8.66321 42.7129L7.99539 41.3461L7.29046 39.6099L6.88234 37.5412L6.69684 35.9527L6.40002 33.2191L6.40002 31.2613L6.40002 29.4512L6.69684 27.4933L7.10495 25.794L7.55017 24.3164L8.03249 22.8387L8.62611 21.398L9.10843 20.3637L9.59075 19.4032L10.3328 18.2211L11.0377 17.1868L11.8168 16.1155L12.596 15.2289L13.5606 14.1946L14.2655 13.4558L15.2673 12.6061L16.3432 11.7565L17.3078 11.0177L18.1983 10.3527L19.1258 9.76169L20.2389 9.17063L20.9438 8.80122L22.465 8.17323L23.7635 7.65606L24.8765 7.28665L26.2864 7.10195L27.7334 6.76948L29.4771 6.54783L30.887 6.40007H32.2597L33.447 6.40007L35.1536 6.54783L36.4893 6.76948L38.0105 7.10195L39.6058 7.54524L41.0157 7.98853L42.3884 8.46876L43.9096 9.13369L45.2452 9.90945L46.4325 10.6852L48.0278 11.7934L49.4006 12.9017L50.5136 14.0099L51.5154 15.0442L52.2574 15.9677L53.0365 17.039L53.7415 18.0364L54.2609 18.9969L54.7432 19.8096L55.2255 20.807L55.6707 21.8413L56.0047 22.6171L56.2644 23.4298L56.5241 24.2425L56.7467 25.1291Z" fill="#FFFAFF"/>
<path d="M30.0336 33.921L49.9571 49.9533H50.2539L53.2591 46.3331L53.4818 45.8529L53.2591 45.4465L33.8922 29.8575L33.2244 29.4511L32.371 29.2295H31.5919L30.887 29.4511L30.2192 29.8575L29.7739 30.2269L29.5142 30.8179L29.2545 31.5198V32.2217V32.8866L29.5142 33.4038L30.0336 33.921Z" fill="#FFFAFF"/>
<path d="M40.6818 56.0485L39.5687 56.3071L21.6487 41.7155L20.6099 40.5703L19.6823 39.1296L18.829 37.652L18.2725 36.2852L18.087 34.8814L17.7902 33.5515V32.3694V31.409L17.7902 30.4116L18.0128 29.2295L18.2725 28.1951L18.829 26.9391L19.1629 26.0156L19.4968 25.2398L19.8678 24.538L20.4615 23.5775L21.018 22.8756L21.76 22.0629L22.3907 21.398L23.0586 20.77L24.0232 20.0681L24.9136 19.551L25.8041 18.9968L26.6574 18.6274L27.8447 18.1472L28.8093 17.8886L29.8481 17.7039L30.9241 17.5931L31.8516 17.5931H32.7049L33.6325 17.7778L34.56 17.9625L35.4876 18.1472L36.2667 18.3689L37.0829 18.6274L37.862 18.9968L38.6783 19.4032L39.4574 19.8095L40.2365 20.3267L40.9044 20.8808L56.7467 33.7362L57.4516 34.4012L57.6 34.9553L56.2644 40.2009H55.8191L55.2255 39.7945L37.862 25.8309L36.8603 25.0921L35.8215 24.538L34.8568 24.0947L34.1148 23.7992L33.447 23.6514L32.7049 23.5775H31.6661L30.5902 23.6514L29.4771 23.7992L28.6238 24.0947L27.7333 24.538L26.8429 25.0921L26.0267 25.8309L25.3589 26.6436L24.7281 27.5302L24.2087 28.1951L23.7635 28.9709L23.4667 30.116L23.4667 31.409V32.9235L23.7635 34.4012L24.2087 35.4725L24.7281 36.5437L25.3589 37.3564L26.0267 38.0583L41.7206 50.8029L44.6145 53.0194L45.2452 53.4996V53.8321L44.1322 54.497L42.0545 55.4574L40.6818 56.0485Z" fill="#FFFAFF"/>
</svg>
