<svg width="300" height="120" viewBox="0 0 300 120" fill="none" xmlns="http://www.w3.org/2000/svg">
<g id="WhiteLogo300-120">
<g id="icone">
<path id="Vector 6" d="M90.8333 51.6061L91.0362 53.0202H90.6812L90.1739 52.8687L76.2246 41.7071L74.1449 40.0404L72.471 38.7778L70.8985 37.8182L68.8696 36.7576L67.1957 35.9495L65.6739 35.2929L63.5435 34.6869L61.3623 34.3333L59.2826 34.0808L56.8478 33.8788L54.2609 34.0808L51.8768 34.4848L50.0507 34.7879L48.0725 35.3939L46.2464 36.101L44.2681 36.9596L42.442 38.0707L40.9203 39.2828L39.6014 40.3434L38.3333 41.404L37.0145 42.7172L35.5942 44.3838L34.4275 46.0505L33.413 47.7172L32.3986 49.6869L31.6377 51.303L30.8261 53.9293L30.4203 55.697L30.2174 57.4646L30.0145 59.1313V61.404L30.2174 63.8283L30.6232 66.2525L30.9783 68.1717L31.4855 70.0909L32.2971 71.7071L32.9565 73.2222L33.6159 74.6364L34.8841 76.6061L36.3043 78.1717L37.6232 79.7879L39.6014 81.7071L54.8188 94.0808L56.442 95.3939V96H55.9348H54.6667L52.8913 95.8485L51.2681 95.596L49.3406 95.2424L47.4638 94.7374L45.942 94.2828L44.4203 93.6768L42.5435 92.9697L40.6667 91.9596L38.7899 91L36.9638 89.8889L35.0362 88.4747L33.1087 86.8586L31.2319 84.8889L29.5072 82.9697L28.2391 81.202L27.0217 79.3333L26.058 77.7172L25.0942 75.6465L24.1812 73.7778L23.2174 71.404L22.6594 68.5758L22.4058 66.404L22 62.6667V59.9899L22 57.5152L22.4058 54.8384L22.9638 52.5152L23.5725 50.4949L24.2319 48.4747L25.0435 46.5051L25.7029 45.0909L26.3623 43.7778L27.3768 42.1616L28.3406 40.7475L29.4058 39.2828L30.471 38.0707L31.7899 36.6566L32.7536 35.6465L34.1232 34.4848L35.5942 33.3232L36.913 32.3131L38.1304 31.404L39.3986 30.596L40.9203 29.7879L41.8841 29.2828L43.9638 28.4242L45.7391 27.7172L47.2609 27.2121L49.1884 26.9596L51.1667 26.5051L53.5507 26.202L55.4783 26H57.3551H58.9783L61.3116 26.202L63.1377 26.5051L65.2174 26.9596L67.3985 27.5657L69.3261 28.1717L71.2029 28.8283L73.2826 29.7374L75.1087 30.798L76.7319 31.8586L78.913 33.3737L80.7899 34.8889L82.3116 36.404L83.6812 37.8182L84.6957 39.0808L85.7609 40.5455L86.7246 41.9091L87.4348 43.2222L88.0942 44.3333L88.7536 45.697L89.3623 47.1111L89.8188 48.1717L90.1739 49.2828L90.529 50.3939L90.8333 51.6061Z" fill="#FFFAFF"/>
<path id="Vector 4" d="M54.3116 63.6263L81.5508 85.5455H81.9565L86.0652 80.596L86.3696 79.9394L86.0652 79.3838L59.587 58.0707L58.6739 57.5152L57.5073 57.2121H56.4421L55.4783 57.5152L54.5652 58.0707L53.9565 58.5758L53.6015 59.3838L53.2464 60.3434V61.303V62.2121L53.6015 62.9192L54.3116 63.6263Z" fill="#FFFAFF"/>
<path id="Vector 5" d="M68.8696 93.8787L67.3478 94.2323L42.8478 74.2828L41.4275 72.7171L40.1594 70.7474L38.9927 68.7272L38.2319 66.8585L37.9782 64.9393L37.5724 63.1211V61.505V60.1919V58.8282L37.8768 57.2121L38.2319 55.7979L38.9927 54.0807L39.4493 52.8181L39.9058 51.7575L40.413 50.7979L41.2246 49.4848L41.9855 48.5252L43 47.4141L43.8623 46.505L44.7753 45.6464L46.0942 44.6868L47.3116 43.9797L48.529 43.2222L49.6956 42.7171L51.3188 42.0605L52.6377 41.707L54.058 41.4545L55.529 41.303H56.7971H57.9638L59.2319 41.5555L60.5 41.808L61.7681 42.0605L62.8333 42.3636L63.9493 42.7171L65.0145 43.2222L66.1304 43.7777L67.1956 44.3333L68.2609 45.0403L69.1739 45.7979L90.8333 63.3737L91.7971 64.2828L92 65.0403L90.1739 72.2121H89.5652L88.7536 71.6565L65.0145 52.5656L63.6449 51.5555L62.2246 50.7979L60.9058 50.1919L59.8913 49.7878L58.9782 49.5858L57.9638 49.4848H56.5435L55.0725 49.5858L53.5507 49.7878L52.384 50.1919L51.1667 50.7979L49.9493 51.5555L48.8333 52.5656L47.9203 53.6767L47.058 54.8888L46.3478 55.7979L45.7391 56.8585L45.3333 58.4242V60.1919V62.2626L45.7391 64.2828L46.3478 65.7474L47.058 67.2121L47.9203 68.3232L48.8333 69.2828L70.2898 86.707L74.2464 89.7373L75.1087 90.3939V90.8484L73.5869 91.7575L70.7464 93.0706L68.8696 93.8787Z" fill="#FFFAFF"/>
</g>
<path id="acert.io" d="M125.8 88.944V78.672C125.8 72.912 122.776 69.792 115.72 69.792C112.84 69.792 109.48 70.416 106.312 71.664L107.848 76.224C110.44 75.36 112.888 74.88 114.568 74.88C117.784 74.88 119.128 75.888 119.128 79.056V80.304H116.2C108.664 80.304 104.488 83.328 104.488 88.896C104.488 93.504 107.656 96.768 112.744 96.768C115.768 96.768 118.552 95.712 120.376 92.928C121.432 95.472 123.352 96.432 126.232 96.672L127.672 92.16C126.424 91.728 125.8 91.008 125.8 88.944ZM114.616 91.872C112.504 91.872 111.352 90.576 111.352 88.32C111.352 85.536 113.176 84.192 116.872 84.192H119.128V89.04C118.072 90.864 116.584 91.872 114.616 91.872ZM143.218 69.792C135.778 69.792 131.074 75.408 131.074 83.472C131.074 91.584 135.73 96.768 143.314 96.768C146.674 96.768 149.362 95.664 151.666 93.792L148.69 89.52C146.818 90.72 145.522 91.296 143.65 91.296C140.434 91.296 138.274 89.328 138.274 83.424C138.274 77.52 140.29 75.072 143.698 75.072C145.57 75.072 147.058 75.648 148.69 76.896L151.666 72.864C149.266 70.8 146.626 69.792 143.218 69.792ZM176.333 82.704C176.333 74.592 172.061 69.792 164.861 69.792C157.421 69.792 153.293 75.744 153.293 83.424C153.293 91.392 157.565 96.768 165.725 96.768C169.709 96.768 172.877 95.328 175.373 93.312L172.541 89.472C170.333 91.008 168.509 91.68 166.349 91.68C163.085 91.68 160.781 90.24 160.301 85.344H176.189C176.237 84.624 176.333 83.568 176.333 82.704ZM169.565 81.072H160.301C160.637 76.272 162.317 74.448 165.005 74.448C168.269 74.448 169.565 76.944 169.565 80.784V81.072ZM194.369 69.84C191.441 69.84 188.945 71.952 187.745 75.504L187.169 70.56H181.217V96H188.033V82.992C188.897 78.816 190.385 76.464 193.505 76.464C194.369 76.464 194.993 76.608 195.809 76.8L196.913 70.224C196.097 69.984 195.281 69.84 194.369 69.84ZM213.208 90.48C212.152 91.056 211.24 91.344 210.328 91.344C208.6 91.344 207.784 90.384 207.784 87.888V75.36H212.968L213.64 70.56H207.784V64.176L200.968 64.992V70.56H197.176V75.36H200.968V88.032C200.968 93.696 203.656 96.72 208.936 96.768C211.192 96.768 213.688 96.096 215.56 94.8L213.208 90.48ZM221.259 88.56C219.003 88.56 217.179 90.432 217.179 92.64C217.179 94.896 219.003 96.768 221.259 96.768C223.563 96.768 225.387 94.896 225.387 92.64C225.387 90.432 223.563 88.56 221.259 88.56ZM233.75 57.456C231.302 57.456 229.622 59.184 229.622 61.44C229.622 63.696 231.302 65.424 233.75 65.424C236.198 65.424 237.926 63.696 237.926 61.44C237.926 59.184 236.198 57.456 233.75 57.456ZM237.158 70.56H230.342V96H237.158V70.56ZM254.548 69.792C246.868 69.792 242.308 75.168 242.308 83.28C242.308 91.728 246.916 96.768 254.5 96.768C262.132 96.768 266.692 91.344 266.692 83.28C266.692 74.832 262.132 69.792 254.548 69.792ZM254.548 74.88C257.86 74.88 259.588 77.424 259.588 83.28C259.588 89.088 257.86 91.68 254.5 91.68C251.14 91.68 249.412 89.136 249.412 83.28C249.412 77.472 251.14 74.88 254.548 74.88Z" fill="#FFFAFF"/>
</g>
</svg>
